<svg width="43" height="44" viewBox="0 0 43 44" fill="none" xmlns="http://www.w3.org/2000/svg">
<path d="M21.9576 19.998C21.7817 19.9802 21.5707 19.98 21.3773 19.9974C17.1922 19.8525 13.872 16.4201 13.8763 12.1997C13.8806 7.89139 17.3659 4.39546 21.6918 4.39979C26.0002 4.40411 29.4961 7.90704 29.4918 12.2154C29.47 16.4358 26.1429 19.8615 21.9576 19.998Z" stroke="#ECE6F0" stroke-width="3.5" stroke-linecap="round" stroke-linejoin="round"/>
<path d="M13.1586 26.4781C8.90012 29.3226 8.89546 33.965 13.1482 36.8005C17.9808 40.041 25.9117 40.0489 30.7508 36.8181C35.0092 33.9736 35.0139 29.3312 30.7612 26.4957C25.9461 23.2728 18.0152 23.2649 13.1586 26.4781Z" stroke="#ECE6F0" stroke-width="3.5" stroke-linecap="round" stroke-linejoin="round"/>
</svg>
