<svg width="44" height="44" viewBox="0 0 44 44" fill="none" xmlns="http://www.w3.org/2000/svg">
<g clip-path="url(#clip0_39_118)">
<path d="M1.83838 1.79773L9.02205 1.80493L13.811 25.8571C13.9744 26.6841 14.4235 27.4273 15.0796 27.9565C15.7357 28.4858 16.5571 28.7674 17.3999 28.7521L34.8563 28.7696C35.6991 28.7866 36.521 28.5066 37.1782 27.9787C37.8354 27.4507 38.2859 26.7085 38.451 25.8818L41.3396 10.8169L10.809 10.7863M17.9656 37.7323C17.9646 38.7241 17.1598 39.5274 16.1679 39.5264C15.176 39.5254 14.3728 38.7205 14.3738 37.7287C14.3748 36.7368 15.1797 35.9336 16.1715 35.9346C17.1634 35.9356 17.9666 36.7404 17.9656 37.7323ZM37.7207 37.7521C37.7197 38.744 36.9149 39.5472 35.923 39.5462C34.9311 39.5452 34.1279 38.7403 34.1289 37.7485C34.1299 36.7566 34.9347 35.9534 35.9266 35.9544C36.9185 35.9554 37.7217 36.7602 37.7207 37.7521Z" stroke="#ECE6F0" stroke-width="4" stroke-linecap="round" stroke-linejoin="round"/>
</g>
<defs>
<clipPath id="clip0_39_118">
<rect width="43.102" height="43.102" fill="white" transform="translate(0.0441895) rotate(0.0574442)"/>
</clipPath>
</defs>
</svg>
